<svg width="33" height="33" viewBox="0 0 33 33" fill="none" xmlns="http://www.w3.org/2000/svg">
<path d="M16.543 0.541321L30.3994 24.5413H2.68656L16.543 0.541321Z" fill="#C4C4C4"/>
<path d="M13.7647 0.784404L31.5782 22.0136L4.2864 26.8259L13.7647 0.784404Z" fill="#C4C4C4"/>
<path d="M11.0702 1.50624L32.2995 19.3197L6.25796 28.798L11.0702 1.50624Z" fill="#C4C4C4"/>
<path d="M8.54195 2.68492L32.542 16.5413L8.54195 30.3977L8.54195 2.68492Z" fill="#C4C4C4"/>
<path d="M6.25671 4.28461L32.2982 13.763L11.069 31.5764L6.25671 4.28461Z" fill="#C4C4C4"/>
<path d="M4.2846 6.25672L31.5764 11.069L13.7629 32.2982L4.2846 6.25672Z" fill="#C4C4C4"/>
<path d="M2.68555 8.54131L30.3984 8.54131L16.542 32.5413L2.68555 8.54131Z" fill="#C4C4C4"/>
<path d="M1.50748 11.069L28.7993 6.25672L19.3209 32.2982L1.50748 11.069Z" fill="#C4C4C4"/>
<path d="M0.786183 13.7629L26.8277 4.2846L22.0154 31.5764L0.786183 13.7629Z" fill="#C4C4C4"/>
<path d="M0.542969 16.5413L24.543 2.68491V30.3977L0.542969 16.5413Z" fill="#C4C4C4"/>
<path d="M0.786082 19.3197L22.0153 1.50624L26.8276 28.798L0.786082 19.3197Z" fill="#C4C4C4"/>
<path d="M1.50815 22.0136L19.3216 0.784393L28.7999 26.8259L1.50815 22.0136Z" fill="#C4C4C4"/>
</svg>
