<svg width="15" height="15" viewBox="0 0 15 15" fill="none" xmlns="http://www.w3.org/2000/svg">
<circle cx="7.5" cy="7.5" r="7.5" fill="white"/>
<path d="M7.496 1L13.2149 11.0533H1.77705L7.496 1Z" fill="#C4C4C4"/>
<path d="M1 6.53838L11.7487 2.56834L9.76248 13.9999L1 6.53838Z" fill="#C4C4C4"/>
<path d="M3.25154 2.56802L14 6.53858L5.23806 14L3.25154 2.56802Z" fill="#C4C4C4"/>
<path d="M3.25154 2.56802L14 6.53858L5.23806 14L3.25154 2.56802Z" fill="#C4C4C4"/>
<path d="M5.27417 1.39336L14.0866 8.88438L3.33854 12.7964L5.27417 1.39336Z" fill="#C4C4C4"/>
<path d="M1.06416 8.8195L9.80675 1.41263L11.8502 12.8341L1.06416 8.8195Z" fill="#C4C4C4"/>
<path d="M1.82198 4.31851L13.2802 4.37343L7.59866 14.3816L1.82198 4.31851Z" fill="#C4C4C4"/>
<path d="M1.82198 4.31851L13.2802 4.37343L7.59866 14.3816L1.82198 4.31851Z" fill="#C4C4C4"/>
</svg>
