<svg width="7" height="7" viewBox="0 0 7 7" fill="none" xmlns="http://www.w3.org/2000/svg">
<circle cx="3.5" cy="3.5" r="3.5" fill="white"/>
<path d="M3.48192 1L5.66695 4.75638H1.29689L3.48192 1Z" fill="#C4C4C4"/>
<path d="M1 3.0694L5.10672 1.586L4.34787 5.85736L1 3.0694Z" fill="#C4C4C4"/>
<path d="M1.86024 1.58589L5.96689 3.06947L2.61923 5.85741L1.86024 1.58589Z" fill="#C4C4C4"/>
<path d="M1.86024 1.58589L5.96689 3.06947L2.61923 5.85741L1.86024 1.58589Z" fill="#C4C4C4"/>
<path d="M2.63303 1.14698L6 3.94597L1.89348 5.40767L2.63303 1.14698Z" fill="#C4C4C4"/>
<path d="M1.02451 3.92173L4.36479 1.15418L5.14552 5.42177L1.02451 3.92173Z" fill="#C4C4C4"/>
<path d="M1.31405 2.23995L5.69189 2.26047L3.52114 6L1.31405 2.23995Z" fill="#C4C4C4"/>
<path d="M1.31405 2.23995L5.69189 2.26047L3.52114 6L1.31405 2.23995Z" fill="#C4C4C4"/>
</svg>
