<svg width="23" height="23" viewBox="0 0 23 23" fill="none" xmlns="http://www.w3.org/2000/svg">
<circle cx="11.5" cy="11.5" r="11.5" fill="white"/>
<path d="M11.5003 1L20.5939 16.75H2.40678L11.5003 1Z" fill="#C4C4C4"/>
<path d="M9.67706 1.15952L21.3675 15.0912L3.4567 18.2493L9.67706 1.15952Z" fill="#C4C4C4"/>
<path d="M7.90874 1.63323L21.8409 13.3233L4.75058 19.5435L7.90874 1.63323Z" fill="#C4C4C4"/>
<path d="M6.2495 2.40674L22 11.5L6.2495 20.5933L6.2495 2.40674Z" fill="#C4C4C4"/>
<path d="M4.74976 3.45654L21.8401 9.6767L7.90792 21.3668L4.74976 3.45654Z" fill="#C4C4C4"/>
<path d="M3.45552 4.75073L21.3663 7.90879L9.67588 21.8405L3.45552 4.75073Z" fill="#C4C4C4"/>
<path d="M2.40611 6.25L20.5932 6.25L11.4997 22L2.40611 6.25Z" fill="#C4C4C4"/>
<path d="M1.63298 7.90879L19.5438 4.75073L13.3234 21.8405L1.63298 7.90879Z" fill="#C4C4C4"/>
<path d="M1.15961 9.67669L18.2499 3.45653L15.0917 21.3668L1.15961 9.67669Z" fill="#C4C4C4"/>
<path d="M1 11.5L16.7505 2.40673V20.5933L1 11.5Z" fill="#C4C4C4"/>
<path d="M1.15955 13.3233L15.0917 1.63323L18.2498 19.5435L1.15955 13.3233Z" fill="#C4C4C4"/>
<path d="M1.63342 15.0912L13.3239 1.15952L19.5442 18.2493L1.63342 15.0912Z" fill="#C4C4C4"/>
</svg>
