<svg width="35" height="35" viewBox="0 0 35 35" fill="none" xmlns="http://www.w3.org/2000/svg">
<circle cx="17.5" cy="17.5" r="17.5" fill="white"/>
<path d="M17.543 1.54132L31.3994 25.5413H3.68656L17.543 1.54132Z" fill="#C4C4C4"/>
<path d="M14.7647 1.7844L32.5782 23.0136L5.2864 27.8259L14.7647 1.7844Z" fill="#C4C4C4"/>
<path d="M12.0702 2.50624L33.2995 20.3197L7.25796 29.798L12.0702 2.50624Z" fill="#C4C4C4"/>
<path d="M9.54195 3.68492L33.542 17.5413L9.54195 31.3977L9.54195 3.68492Z" fill="#C4C4C4"/>
<path d="M7.25671 5.28461L33.2982 14.763L12.069 32.5764L7.25671 5.28461Z" fill="#C4C4C4"/>
<path d="M5.2846 7.25672L32.5764 12.069L14.7629 33.2982L5.2846 7.25672Z" fill="#C4C4C4"/>
<path d="M3.68555 9.54131L31.3984 9.54131L17.542 33.5413L3.68555 9.54131Z" fill="#C4C4C4"/>
<path d="M2.50748 12.069L29.7993 7.25672L20.3209 33.2982L2.50748 12.069Z" fill="#C4C4C4"/>
<path d="M1.78618 14.7629L27.8277 5.2846L23.0154 32.5764L1.78618 14.7629Z" fill="#C4C4C4"/>
<path d="M1.54297 17.5413L25.543 3.68491V31.3977L1.54297 17.5413Z" fill="#C4C4C4"/>
<path d="M1.78608 20.3197L23.0153 2.50624L27.8276 29.798L1.78608 20.3197Z" fill="#C4C4C4"/>
<path d="M2.50815 23.0136L20.3216 1.78439L29.7999 27.8259L2.50815 23.0136Z" fill="#C4C4C4"/>
</svg>
